<svg width="27" height="27" viewBox="0 0 27 27" fill="none" xmlns="http://www.w3.org/2000/svg">
<path d="M13.5 7.8394C12.3669 7.8394 11.2592 8.17881 10.317 8.81472C9.37489 9.45062 8.64057 10.3545 8.20694 11.4119C7.77331 12.4694 7.65986 13.633 7.88092 14.7556C8.10198 15.8782 8.64763 16.9094 9.44887 17.7187C10.2501 18.5281 11.2709 19.0793 12.3823 19.3026C13.4936 19.5259 14.6456 19.4113 15.6925 18.9732C16.7393 18.5352 17.6341 17.7935 18.2636 16.8418C18.8932 15.8901 19.2292 14.7712 19.2292 13.6266C19.2274 12.0923 18.6233 10.6213 17.5492 9.53635C16.4752 8.45142 15.0189 7.84114 13.5 7.8394V7.8394ZM13.5 18.3616C12.5729 18.3616 11.6666 18.0839 10.8958 17.5636C10.1249 17.0433 9.5241 16.3038 9.16931 15.4386C8.81453 14.5734 8.7217 13.6213 8.90257 12.7028C9.08344 11.7843 9.52988 10.9407 10.1854 10.2785C10.841 9.61626 11.6762 9.1653 12.5855 8.9826C13.4948 8.7999 14.4373 8.89367 15.2938 9.25204C16.1504 9.61042 16.8824 10.2173 17.3975 10.996C17.9126 11.7746 18.1875 12.6901 18.1875 13.6266C18.1861 14.882 17.6918 16.0855 16.813 16.9732C15.9343 17.8609 14.7428 18.3602 13.5 18.3616ZM19.2292 1H7.77083C5.97572 1.00205 4.25471 1.72329 2.98538 3.00548C1.71604 4.28767 1.00203 6.02611 1 7.8394V19.4138C1.00203 21.2271 1.71604 22.9655 2.98538 24.2477C4.25471 25.5299 5.97572 26.2511 7.77083 26.2532H19.2292C21.0243 26.2511 22.7453 25.5299 24.0146 24.2477C25.284 22.9655 25.998 21.2271 26 19.4138V7.8394C25.998 6.02611 25.284 4.28767 24.0146 3.00548C22.7453 1.72329 21.0243 1.00205 19.2292 1V1ZM24.9583 19.4138C24.9566 20.9481 24.3524 22.4191 23.2784 23.504C22.2043 24.5889 20.7481 25.1992 19.2292 25.201H7.77083C6.25189 25.1992 4.79566 24.5889 3.7216 23.504C2.64755 22.4191 2.04339 20.9481 2.04167 19.4138V7.8394C2.04339 6.30508 2.64755 4.8341 3.7216 3.74917C4.79566 2.66423 6.25189 2.05396 7.77083 2.05222H19.2292C20.7481 2.05396 22.2043 2.66423 23.2784 3.74917C24.3524 4.8341 24.9566 6.30508 24.9583 7.8394V19.4138ZM21.3125 6.78719C21.3125 6.99529 21.2514 7.19873 21.1369 7.37177C21.0225 7.5448 20.8598 7.67967 20.6695 7.75931C20.4791 7.83895 20.2697 7.85978 20.0676 7.81918C19.8655 7.77858 19.6799 7.67837 19.5343 7.53121C19.3886 7.38406 19.2894 7.19657 19.2492 6.99246C19.209 6.78835 19.2296 6.57679 19.3085 6.38452C19.3873 6.19225 19.5208 6.02792 19.6921 5.9123C19.8634 5.79668 20.0648 5.73497 20.2708 5.73497C20.547 5.73532 20.8117 5.84629 21.007 6.04354C21.2023 6.24079 21.3122 6.50823 21.3125 6.78719V6.78719Z" fill="#82DED8" stroke="#82DED8" stroke-width="0.5"/>
</svg>
