<svg width="152" height="41" viewBox="0 0 152 41" fill="none" xmlns="http://www.w3.org/2000/svg">
<path d="M71.374 33.8008C71.2178 33.7747 71.0566 33.7617 70.8906 33.7617C70.347 33.7617 69.9808 33.9701 69.792 34.3867V38H68.6055V32.7168H69.7383L69.7676 33.3076C70.054 32.8486 70.4512 32.6191 70.959 32.6191C71.1283 32.6191 71.2682 32.6419 71.3789 32.6875L71.374 33.8008ZM71.9256 35.3096C71.9256 34.792 72.0281 34.3265 72.2332 33.9131C72.4383 33.4964 72.7264 33.1774 73.0975 32.9561C73.4686 32.7314 73.895 32.6191 74.3768 32.6191C75.0896 32.6191 75.6674 32.8486 76.1102 33.3076C76.5561 33.7666 76.797 34.3753 76.8328 35.1338L76.8377 35.4121C76.8377 35.9329 76.7368 36.3984 76.535 36.8086C76.3364 37.2188 76.0499 37.5361 75.6756 37.7607C75.3045 37.9854 74.8748 38.0977 74.3865 38.0977C73.6411 38.0977 73.0438 37.8503 72.5945 37.3555C72.1486 36.8574 71.9256 36.195 71.9256 35.3682V35.3096ZM73.1121 35.4121C73.1121 35.9557 73.2244 36.3822 73.449 36.6914C73.6736 36.9974 73.9861 37.1504 74.3865 37.1504C74.7869 37.1504 75.0978 36.9941 75.3191 36.6816C75.5438 36.3691 75.6561 35.9118 75.6561 35.3096C75.6561 34.7757 75.5405 34.3525 75.3094 34.04C75.0815 33.7275 74.7706 33.5713 74.3768 33.5713C73.9894 33.5713 73.6818 33.7259 73.4539 34.0352C73.226 34.3411 73.1121 34.8001 73.1121 35.4121ZM82.6773 35.4121C82.6773 36.2324 82.4934 36.8851 82.1256 37.3701C81.761 37.8551 81.2581 38.0977 80.6168 38.0977C79.9983 38.0977 79.5165 37.8747 79.1715 37.4287L79.1129 38H78.0387V30.5H79.2252V33.2246C79.567 32.821 80.0276 32.6191 80.607 32.6191C81.2516 32.6191 81.7577 32.8584 82.1256 33.3369C82.4934 33.8154 82.6773 34.4844 82.6773 35.3438V35.4121ZM81.4908 35.3096C81.4908 34.7367 81.3899 34.307 81.1881 34.0205C80.9863 33.734 80.6933 33.5908 80.3092 33.5908C79.7949 33.5908 79.4335 33.8154 79.2252 34.2646V36.4424C79.4368 36.9014 79.8014 37.1309 80.3189 37.1309C80.69 37.1309 80.9765 36.9925 81.1783 36.7158C81.3801 36.4391 81.4843 36.0208 81.4908 35.4609V35.3096ZM83.6537 35.3096C83.6537 34.792 83.7563 34.3265 83.9613 33.9131C84.1664 33.4964 84.4545 33.1774 84.8256 32.9561C85.1967 32.7314 85.6231 32.6191 86.1049 32.6191C86.8178 32.6191 87.3956 32.8486 87.8383 33.3076C88.2842 33.7666 88.5251 34.3753 88.5609 35.1338L88.5658 35.4121C88.5658 35.9329 88.4649 36.3984 88.2631 36.8086C88.0645 37.2188 87.7781 37.5361 87.4037 37.7607C87.0326 37.9854 86.6029 38.0977 86.1146 38.0977C85.3692 38.0977 84.7719 37.8503 84.3227 37.3555C83.8767 36.8574 83.6537 36.195 83.6537 35.3682V35.3096ZM84.8402 35.4121C84.8402 35.9557 84.9525 36.3822 85.1771 36.6914C85.4018 36.9974 85.7143 37.1504 86.1146 37.1504C86.515 37.1504 86.8259 36.9941 87.0473 36.6816C87.2719 36.3691 87.3842 35.9118 87.3842 35.3096C87.3842 34.7757 87.2686 34.3525 87.0375 34.04C86.8096 33.7275 86.4988 33.5713 86.1049 33.5713C85.7175 33.5713 85.4099 33.7259 85.182 34.0352C84.9542 34.3411 84.8402 34.8001 84.8402 35.4121ZM91.2561 31.4326V32.7168H92.1887V33.5957H91.2561V36.5449C91.2561 36.7467 91.2951 36.8932 91.3732 36.9844C91.4546 37.0723 91.5979 37.1162 91.8029 37.1162C91.9396 37.1162 92.078 37.0999 92.218 37.0674V37.9854C91.9478 38.0602 91.6874 38.0977 91.4367 38.0977C90.5253 38.0977 90.0695 37.5947 90.0695 36.5889V33.5957H89.2004V32.7168H90.0695V31.4326H91.2561ZM94.5615 38H93.375V32.7168H94.5615V38ZM93.3018 31.3447C93.3018 31.1624 93.3587 31.0111 93.4727 30.8906C93.5898 30.7702 93.7559 30.71 93.9707 30.71C94.1855 30.71 94.3516 30.7702 94.4688 30.8906C94.5859 31.0111 94.6445 31.1624 94.6445 31.3447C94.6445 31.5238 94.5859 31.6735 94.4688 31.7939C94.3516 31.9111 94.1855 31.9697 93.9707 31.9697C93.7559 31.9697 93.5898 31.9111 93.4727 31.7939C93.3587 31.6735 93.3018 31.5238 93.3018 31.3447ZM98.2283 37.1504C98.5245 37.1504 98.7703 37.0641 98.9656 36.8916C99.1609 36.7191 99.2651 36.5059 99.2781 36.252H100.396C100.383 36.5807 100.281 36.8883 100.089 37.1748C99.8966 37.458 99.6362 37.6826 99.3074 37.8486C98.9786 38.0146 98.6238 38.0977 98.243 38.0977C97.504 38.0977 96.9181 37.8584 96.4852 37.3799C96.0522 36.9014 95.8357 36.2406 95.8357 35.3975V35.2754C95.8357 34.4714 96.0506 33.8285 96.4803 33.3467C96.91 32.8617 97.4959 32.6191 98.2381 32.6191C98.8663 32.6191 99.3774 32.8031 99.7713 33.1709C100.168 33.5355 100.377 34.0156 100.396 34.6113H99.2781C99.2651 34.3086 99.1609 34.0596 98.9656 33.8643C98.7736 33.6689 98.5278 33.5713 98.2283 33.5713C97.8442 33.5713 97.548 33.7113 97.3396 33.9912C97.1313 34.2679 97.0255 34.6895 97.0223 35.2559V35.4463C97.0223 36.0192 97.1248 36.4473 97.3299 36.7305C97.5382 37.0104 97.8377 37.1504 98.2283 37.1504ZM104.454 36.5645C104.454 36.3529 104.366 36.1917 104.19 36.0811C104.018 35.9704 103.729 35.8727 103.326 35.7881C102.922 35.7035 102.585 35.596 102.315 35.4658C101.723 35.1794 101.426 34.7643 101.426 34.2207C101.426 33.765 101.618 33.3841 102.003 33.0781C102.387 32.7721 102.875 32.6191 103.467 32.6191C104.099 32.6191 104.608 32.7754 104.996 33.0879C105.386 33.4004 105.582 33.8057 105.582 34.3037H104.395C104.395 34.0758 104.31 33.887 104.141 33.7373C103.972 33.5843 103.747 33.5078 103.467 33.5078C103.207 33.5078 102.994 33.568 102.828 33.6885C102.665 33.8089 102.584 33.9701 102.584 34.1719C102.584 34.3542 102.66 34.4958 102.813 34.5967C102.966 34.6976 103.275 34.8001 103.741 34.9043C104.206 35.0052 104.571 35.1273 104.835 35.2705C105.101 35.4105 105.298 35.5798 105.425 35.7783C105.556 35.9769 105.621 36.2178 105.621 36.501C105.621 36.9762 105.424 37.362 105.03 37.6582C104.636 37.9512 104.12 38.0977 103.482 38.0977C103.049 38.0977 102.663 38.0195 102.325 37.8633C101.986 37.707 101.723 37.4922 101.534 37.2188C101.345 36.9453 101.251 36.6507 101.251 36.335H102.403C102.419 36.6149 102.525 36.8314 102.72 36.9844C102.916 37.1341 103.174 37.209 103.497 37.209C103.809 37.209 104.047 37.1504 104.21 37.0332C104.372 36.9128 104.454 36.7565 104.454 36.5645ZM111.719 37.1504C112.015 37.1504 112.261 37.0641 112.456 36.8916C112.652 36.7191 112.756 36.5059 112.769 36.252H113.887C113.874 36.5807 113.771 36.8883 113.579 37.1748C113.387 37.458 113.127 37.6826 112.798 37.8486C112.469 38.0146 112.114 38.0977 111.734 38.0977C110.995 38.0977 110.409 37.8584 109.976 37.3799C109.543 36.9014 109.326 36.2406 109.326 35.3975V35.2754C109.326 34.4714 109.541 33.8285 109.971 33.3467C110.401 32.8617 110.987 32.6191 111.729 32.6191C112.357 32.6191 112.868 32.8031 113.262 33.1709C113.659 33.5355 113.867 34.0156 113.887 34.6113H112.769C112.756 34.3086 112.652 34.0596 112.456 33.8643C112.264 33.6689 112.018 33.5713 111.719 33.5713C111.335 33.5713 111.039 33.7113 110.83 33.9912C110.622 34.2679 110.516 34.6895 110.513 35.2559V35.4463C110.513 36.0192 110.615 36.4473 110.821 36.7305C111.029 37.0104 111.328 37.1504 111.719 37.1504ZM114.761 35.3096C114.761 34.792 114.863 34.3265 115.068 33.9131C115.273 33.4964 115.562 33.1774 115.933 32.9561C116.304 32.7314 116.73 32.6191 117.212 32.6191C117.925 32.6191 118.503 32.8486 118.945 33.3076C119.391 33.7666 119.632 34.3753 119.668 35.1338L119.673 35.4121C119.673 35.9329 119.572 36.3984 119.37 36.8086C119.172 37.2188 118.885 37.5361 118.511 37.7607C118.14 37.9854 117.71 38.0977 117.222 38.0977C116.476 38.0977 115.879 37.8503 115.43 37.3555C114.984 36.8574 114.761 36.195 114.761 35.3682V35.3096ZM115.947 35.4121C115.947 35.9557 116.06 36.3822 116.284 36.6914C116.509 36.9974 116.821 37.1504 117.222 37.1504C117.622 37.1504 117.933 36.9941 118.154 36.6816C118.379 36.3691 118.491 35.9118 118.491 35.3096C118.491 34.7757 118.376 34.3525 118.145 34.04C117.917 33.7275 117.606 33.5713 117.212 33.5713C116.825 33.5713 116.517 33.7259 116.289 34.0352C116.061 34.3411 115.947 34.8001 115.947 35.4121ZM121.992 32.7168L122.026 33.2686C122.397 32.8356 122.905 32.6191 123.55 32.6191C124.256 32.6191 124.739 32.8893 125 33.4297C125.384 32.8893 125.924 32.6191 126.621 32.6191C127.204 32.6191 127.637 32.7803 127.92 33.1025C128.206 33.4248 128.353 33.9001 128.359 34.5283V38H127.173V34.5625C127.173 34.2272 127.099 33.9814 126.953 33.8252C126.806 33.6689 126.564 33.5908 126.225 33.5908C125.955 33.5908 125.734 33.6641 125.561 33.8105C125.392 33.9538 125.273 34.1426 125.205 34.377L125.21 38H124.023V34.5234C124.007 33.9017 123.69 33.5908 123.071 33.5908C122.596 33.5908 122.259 33.7845 122.06 34.1719V38H120.874V32.7168H121.992ZM134.404 35.4121C134.404 36.2292 134.218 36.8818 133.847 37.3701C133.476 37.8551 132.978 38.0977 132.353 38.0977C131.774 38.0977 131.31 37.9072 130.962 37.5264V40.0312H129.775V32.7168H130.869L130.918 33.2539C131.266 32.8307 131.74 32.6191 132.338 32.6191C132.983 32.6191 133.488 32.86 133.852 33.3418C134.22 33.8203 134.404 34.486 134.404 35.3389V35.4121ZM133.222 35.3096C133.222 34.7822 133.116 34.3639 132.905 34.0547C132.697 33.7454 132.397 33.5908 132.006 33.5908C131.521 33.5908 131.173 33.791 130.962 34.1914V36.5352C131.176 36.9453 131.528 37.1504 132.016 37.1504C132.394 37.1504 132.688 36.999 132.9 36.6963C133.115 36.3903 133.222 35.9281 133.222 35.3096ZM138.769 38C138.717 37.8991 138.671 37.7347 138.632 37.5068C138.255 37.9007 137.792 38.0977 137.246 38.0977C136.715 38.0977 136.282 37.9463 135.947 37.6436C135.611 37.3408 135.444 36.9665 135.444 36.5205C135.444 35.9574 135.652 35.526 136.069 35.2266C136.489 34.9238 137.088 34.7725 137.866 34.7725H138.593V34.4258C138.593 34.1523 138.517 33.9342 138.364 33.7715C138.211 33.6055 137.978 33.5225 137.665 33.5225C137.395 33.5225 137.174 33.5908 137.001 33.7275C136.829 33.861 136.743 34.0319 136.743 34.2402H135.556C135.556 33.9505 135.652 33.6803 135.844 33.4297C136.036 33.1758 136.297 32.9772 136.625 32.834C136.957 32.6908 137.327 32.6191 137.734 32.6191C138.352 32.6191 138.845 32.7754 139.213 33.0879C139.581 33.3971 139.77 33.8333 139.78 34.3965V36.7793C139.78 37.2546 139.846 37.6338 139.98 37.917V38H138.769ZM137.465 37.1455C137.7 37.1455 137.919 37.0885 138.124 36.9746C138.333 36.8607 138.489 36.7077 138.593 36.5156V35.5195H137.954C137.514 35.5195 137.184 35.596 136.962 35.749C136.741 35.902 136.63 36.1185 136.63 36.3984C136.63 36.6263 136.705 36.8086 136.855 36.9453C137.008 37.0788 137.211 37.1455 137.465 37.1455ZM142.323 32.7168L142.358 33.3271C142.748 32.8551 143.261 32.6191 143.896 32.6191C144.996 32.6191 145.556 33.249 145.575 34.5088V38H144.389V34.5771C144.389 34.2419 144.316 33.9945 144.169 33.835C144.026 33.6722 143.79 33.5908 143.461 33.5908C142.983 33.5908 142.626 33.8073 142.392 34.2402V38H141.205V32.7168H142.323ZM148.837 36.3008L149.911 32.7168H151.176L149.076 38.8008C148.754 39.6895 148.207 40.1338 147.436 40.1338C147.263 40.1338 147.073 40.1045 146.864 40.0459V39.1279L147.089 39.1426C147.388 39.1426 147.613 39.0872 147.763 38.9766C147.916 38.8691 148.036 38.6868 148.124 38.4297L148.295 37.9756L146.439 32.7168H147.719L148.837 36.3008Z" fill="black"/>
<path d="M78.6523 17.6055C78.6523 16.8555 78.3867 16.2773 77.8555 15.8711C77.332 15.4648 76.3828 15.0547 75.0078 14.6406C73.6328 14.2266 72.5391 13.7656 71.7266 13.2578C70.1719 12.2812 69.3945 11.0078 69.3945 9.4375C69.3945 8.0625 69.9531 6.92969 71.0703 6.03906C72.1953 5.14844 73.6523 4.70312 75.4414 4.70312C76.6289 4.70312 77.6875 4.92188 78.6172 5.35938C79.5469 5.79687 80.2773 6.42188 80.8086 7.23438C81.3398 8.03906 81.6055 8.93359 81.6055 9.91797H78.6523C78.6523 9.02734 78.3711 8.33203 77.8086 7.83203C77.2539 7.32422 76.457 7.07031 75.418 7.07031C74.4492 7.07031 73.6953 7.27734 73.1562 7.69141C72.625 8.10547 72.3594 8.68359 72.3594 9.42578C72.3594 10.0508 72.6484 10.5742 73.2266 10.9961C73.8047 11.4102 74.7578 11.8164 76.0859 12.2148C77.4141 12.6055 78.4805 13.0547 79.2852 13.5625C80.0898 14.0625 80.6797 14.6406 81.0547 15.2969C81.4297 15.9453 81.6172 16.707 81.6172 17.582C81.6172 19.0039 81.0703 20.1367 79.9766 20.9805C78.8906 21.8164 77.4141 22.2344 75.5469 22.2344C74.3125 22.2344 73.1758 22.0078 72.1367 21.5547C71.1055 21.0938 70.3008 20.4609 69.7227 19.6562C69.1523 18.8516 68.8672 17.9141 68.8672 16.8438H71.832C71.832 17.8125 72.1523 18.5625 72.793 19.0938C73.4336 19.625 74.3516 19.8906 75.5469 19.8906C76.5781 19.8906 77.3516 19.6836 77.8672 19.2695C78.3906 18.8477 78.6523 18.293 78.6523 17.6055ZM87.23 10.7031C88.1597 9.625 89.3355 9.08594 90.7573 9.08594C93.4605 9.08594 94.8316 10.6289 94.8706 13.7148V22H92.023V13.8203C92.023 12.9453 91.8316 12.3281 91.4487 11.9688C91.0737 11.6016 90.5191 11.418 89.7847 11.418C88.6441 11.418 87.7925 11.9258 87.23 12.9414V22H84.3823V4H87.23V10.7031ZM105.921 20.7578C105.085 21.7422 103.897 22.2344 102.358 22.2344C100.983 22.2344 99.9405 21.832 99.2295 21.0273C98.5264 20.2227 98.1748 19.0586 98.1748 17.5352V9.32031H101.022V17.5C101.022 19.1094 101.69 19.9141 103.026 19.9141C104.409 19.9141 105.343 19.418 105.827 18.4258V9.32031H108.675V22H105.991L105.921 20.7578ZM118.694 11.9219C118.319 11.8594 117.932 11.8281 117.534 11.8281C116.229 11.8281 115.35 12.3281 114.897 13.3281V22H112.049V9.32031H114.768L114.838 10.7383C115.526 9.63672 116.479 9.08594 117.698 9.08594C118.104 9.08594 118.44 9.14062 118.706 9.25L118.694 11.9219ZM124.002 22H121.154V9.32031H124.002V22ZM120.979 6.02734C120.979 5.58984 121.115 5.22656 121.389 4.9375C121.67 4.64844 122.068 4.50391 122.584 4.50391C123.1 4.50391 123.498 4.64844 123.779 4.9375C124.061 5.22656 124.201 5.58984 124.201 6.02734C124.201 6.45703 124.061 6.81641 123.779 7.10547C123.498 7.38672 123.1 7.52734 122.584 7.52734C122.068 7.52734 121.67 7.38672 121.389 7.10547C121.115 6.81641 120.979 6.45703 120.979 6.02734ZM131.713 16.5625L130.447 17.8633V22H127.599V4H130.447V14.3828L131.338 13.2695L134.841 9.32031H138.263L133.552 14.6055L138.767 22H135.474L131.713 16.5625Z" fill="black"/>
<ellipse cx="24.0373" cy="23.6727" rx="21.8522" ry="14.204" fill="#A2C8CA"/>
<ellipse cx="24" cy="22" rx="13" ry="4" fill="white"/>
<path d="M6.78131 3.69791C6.88745 3.96578 6.8673 4.36432 6.54842 4.84806C6.23165 5.32858 5.66345 5.80745 4.89581 6.11161C4.12816 6.41578 3.38618 6.45603 2.82625 6.32288C2.26258 6.18883 1.97493 5.91224 1.8688 5.64437C1.76266 5.3765 1.7828 4.97796 2.10169 4.49422C2.41846 4.0137 2.98666 3.53483 3.7543 3.23066C4.52195 2.9265 5.26393 2.88624 5.82386 3.0194C6.38753 3.15345 6.67517 3.43004 6.78131 3.69791Z" stroke="#A2C8CA" stroke-width="2"/>
<path d="M46.7461 6.19553C46.6112 6.45011 46.2949 6.69341 45.7199 6.76469C45.1487 6.83549 44.4156 6.71392 43.6861 6.32722C42.9565 5.94053 42.4444 5.4021 42.1824 4.88967C41.9186 4.37381 41.9424 3.97547 42.0773 3.72089C42.2122 3.46631 42.5285 3.22302 43.1035 3.15174C43.6747 3.08093 44.4078 3.20251 45.1373 3.5892C45.8669 3.9759 46.379 4.51432 46.641 5.02675C46.9048 5.54262 46.881 5.94096 46.7461 6.19553Z" stroke="#A2C8CA" stroke-width="2"/>
<path d="M5.77406 7.07048L10.9261 13.4821" stroke="black" stroke-width="2" stroke-linecap="round"/>
<path d="M43.0291 7.07066L37.1487 13.4822" stroke="black" stroke-width="2" stroke-linecap="round"/>
</svg>
