<svg width="31" height="28" viewBox="0 0 31 28" fill="none" xmlns="http://www.w3.org/2000/svg">
<path d="M29.4197 1.40499C29.1899 1.20633 28.91 1.07441 28.6105 1.02351C28.3111 0.972619 28.0033 1.0047 27.7208 1.11629L2.05821 11.1993C1.72279 11.3312 1.43907 11.5681 1.24949 11.8747C1.05992 12.1812 0.974678 12.5409 1.00653 12.8999C1.03838 13.259 1.18562 13.5981 1.4262 13.8664C1.66678 14.1348 1.98778 14.3181 2.34118 14.3888L9.30673 15.7823V24.381C9.30326 24.7119 9.39973 25.036 9.58353 25.3111C9.76732 25.5862 10.0299 25.7994 10.3368 25.9227C10.5424 26.0089 10.763 26.0535 10.9859 26.0541C11.2038 26.0535 11.4193 26.0095 11.6201 25.9249C11.8208 25.8402 12.0027 25.7165 12.1553 25.561L16.1316 21.5843L21.9985 26.7478C22.3008 27.0163 22.691 27.1648 23.0953 27.1653C23.2711 27.1651 23.4458 27.1374 23.613 27.0832C23.8888 26.9958 24.1368 26.8375 24.3323 26.6242C24.5278 26.4109 24.664 26.1501 24.7272 25.8678L29.9574 3.04236C30.0257 2.74635 30.0117 2.4373 29.9169 2.14868C29.8221 1.86006 29.6502 1.60288 29.4197 1.40499ZM2.11439 12.8015C2.1006 12.6814 2.12771 12.5601 2.19134 12.4573C2.25498 12.3544 2.35141 12.2761 2.46507 12.2348L25.9888 2.99202L9.73389 14.7331L2.55935 13.298C2.44014 13.2774 2.33137 13.2171 2.25063 13.127C2.16988 13.037 2.12188 12.9223 2.11439 12.8015ZM11.3686 24.7745C11.2908 24.8522 11.1917 24.9052 11.0838 24.9266C10.9759 24.9481 10.8641 24.9371 10.7624 24.895C10.6608 24.8528 10.574 24.7815 10.5128 24.6901C10.4517 24.5986 10.4191 24.491 10.4191 24.381V16.5566L15.2948 20.8478L11.3686 24.7745ZM28.8731 2.79385L23.6428 25.6193C23.6212 25.7132 23.5757 25.7999 23.5106 25.871C23.4455 25.942 23.363 25.9949 23.2714 26.0245C23.1797 26.054 23.0819 26.0593 22.9875 26.0397C22.8932 26.0201 22.8056 25.9764 22.7332 25.9127L10.7535 15.369L28.7831 2.34605C28.8306 2.40923 28.8633 2.48222 28.8789 2.55968C28.8944 2.63714 28.8925 2.71711 28.8731 2.79371V2.79385Z" fill="#82DED8" stroke="#82DED8" stroke-width="0.5"/>
</svg>
