<?xml version="1.0" standalone="no"?>
<!DOCTYPE svg PUBLIC "-//W3C//DTD SVG 20010904//EN"
 "http://www.w3.org/TR/2001/REC-SVG-20010904/DTD/svg10.dtd">
<svg version="1.0" xmlns="http://www.w3.org/2000/svg"
 width="784.000000pt" height="784.000000pt" viewBox="0 0 784.000000 784.000000"
 preserveAspectRatio="xMidYMid meet">
<metadata>
Created by potrace 1.14, written by Peter Selinger 2001-2017
</metadata>
<g transform="translate(0.000000,784.000000) scale(0.100000,-0.100000)"
fill="#000000" stroke="none">
<path d="M695 6633 c-114 -23 -149 -35 -234 -80 -132 -70 -233 -169 -289 -283
-32 -67 -36 -84 -37 -155 0 -67 4 -89 27 -136 64 -129 200 -199 393 -201 66 0
134 8 168 21 26 10 29 8 45 -20 9 -17 55 -79 102 -138 88 -111 99 -124 115
-144 6 -7 37 -46 70 -87 79 -99 84 -106 122 -149 18 -20 33 -39 33 -43 0 -4 6
-13 13 -20 7 -7 50 -60 96 -118 47 -58 87 -107 91 -110 3 -3 19 -23 35 -45 17
-22 34 -43 39 -46 17 -13 -1 -28 -144 -124 -80 -54 -147 -100 -150 -104 -3 -3
-36 -31 -75 -61 -134 -105 -312 -292 -443 -465 -20 -26 -69 -102 -75 -115 -4
-8 -18 -33 -32 -55 -61 -99 -155 -331 -168 -414 -3 -16 -7 -33 -10 -38 -3 -4
-7 -24 -10 -43 -3 -19 -10 -57 -14 -85 -10 -63 -10 -345 0 -405 5 -25 10 -58
13 -75 22 -135 88 -318 165 -462 45 -85 152 -250 193 -298 15 -16 43 -50 64
-74 95 -114 287 -292 406 -376 15 -11 47 -34 70 -51 44 -33 221 -146 246 -157
8 -4 31 -17 50 -28 64 -39 257 -133 380 -186 78 -33 211 -84 230 -88 8 -2 16
-4 18 -5 1 -2 5 -3 10 -5 4 -1 14 -4 22 -8 26 -10 145 -47 155 -48 6 -1 21 -6
35 -11 14 -5 32 -11 40 -13 8 -2 62 -15 120 -30 58 -15 114 -29 125 -31 23 -4
58 -12 95 -20 14 -3 34 -7 46 -9 11 -1 45 -8 75 -14 30 -6 71 -13 92 -16 20
-3 54 -7 75 -10 20 -3 48 -7 62 -10 14 -2 52 -7 85 -10 33 -3 80 -8 105 -10
155 -16 235 -19 495 -20 257 0 414 6 525 20 19 2 62 6 95 10 59 6 173 21 228
30 15 3 41 7 57 10 53 9 84 15 110 20 14 4 36 8 50 11 14 3 32 6 40 8 8 1 29
6 45 9 17 4 39 9 50 11 29 6 162 42 263 72 48 14 92 27 97 28 6 2 23 8 38 14
15 7 40 15 55 18 15 4 33 11 40 17 6 5 12 6 12 1 0 -4 5 -3 12 4 7 7 18 12 26
12 16 0 344 138 352 148 3 4 11 8 19 10 8 2 55 25 104 53 49 27 93 49 98 49 5
0 9 5 9 10 0 6 6 10 13 10 11 0 136 76 164 100 7 5 15 10 18 10 9 0 224 163
280 211 95 85 241 235 300 309 33 41 66 81 73 88 6 7 12 17 12 21 0 4 8 16 18
27 16 19 23 31 55 87 6 12 15 24 18 27 3 3 14 21 24 40 9 19 27 53 38 75 12
22 22 42 22 45 1 3 7 19 15 35 7 17 19 45 27 63 41 95 88 294 98 417 12 145 0
382 -21 416 -2 3 -6 24 -8 46 -6 47 -53 190 -94 289 -59 141 -164 313 -276
449 -43 52 -106 123 -142 159 -62 62 -155 147 -199 181 -27 22 -58 48 -69 57
-27 25 -191 137 -258 178 -32 19 -58 38 -58 42 0 3 17 24 38 46 20 21 59 63
86 93 62 69 223 244 256 279 14 15 61 66 105 115 44 48 96 105 115 125 55 58
183 200 204 226 15 18 23 21 37 13 11 -5 19 -7 19 -4 0 3 9 1 19 -4 23 -13
109 -25 171 -24 270 0 427 161 386 393 -15 90 -73 188 -160 275 -58 57 -146
125 -162 125 -4 0 -15 6 -23 13 -9 8 -41 23 -71 34 -30 12 -64 24 -75 29 -11
4 -24 6 -28 5 -4 0 -18 4 -29 10 -37 20 -223 19 -290 -2 -158 -48 -237 -140
-252 -294 -4 -42 17 -123 49 -190 32 -68 51 -94 116 -163 l32 -33 -44 -47
c-24 -25 -55 -58 -69 -72 -14 -14 -43 -46 -64 -71 -44 -49 -199 -218 -261
-284 -22 -24 -53 -58 -70 -76 -36 -41 -224 -246 -287 -313 l-46 -50 -108 48
c-229 100 -564 214 -704 240 -14 2 -32 7 -40 10 -8 3 -26 8 -40 10 -14 3 -36
8 -50 11 -30 6 -64 13 -105 20 -37 7 -73 14 -105 21 -26 6 -42 8 -125 20 -27
3 -57 8 -66 9 -23 4 -118 17 -154 20 -247 23 -314 26 -555 27 -201 1 -388 -6
-470 -17 -19 -2 -64 -7 -100 -10 -36 -3 -76 -7 -90 -9 -14 -3 -47 -7 -75 -11
-44 -5 -78 -10 -210 -32 -16 -2 -91 -18 -165 -34 -74 -16 -146 -32 -160 -35
-14 -2 -36 -9 -50 -13 -23 -9 -66 -20 -97 -27 -7 -1 -43 -12 -80 -24 -38 -12
-75 -24 -83 -25 -8 -2 -40 -13 -70 -25 -30 -12 -62 -23 -71 -25 -23 -5 -156
-59 -263 -106 -49 -22 -93 -36 -96 -32 -4 5 -51 64 -105 133 -55 69 -106 133
-114 142 -9 9 -26 30 -38 45 -54 69 -157 198 -163 203 -3 3 -17 21 -32 42 -15
20 -34 42 -41 50 -7 7 -19 22 -27 34 -8 11 -31 41 -52 65 -20 24 -53 64 -73
89 -107 132 -103 118 -52 165 145 135 200 291 152 434 -30 90 -147 189 -244
206 -19 3 -39 9 -45 12 -20 13 -182 10 -251 -4z m218 -318 c21 -9 21 -10 0
-42 -26 -40 -54 -65 -109 -100 -95 -60 -217 -88 -306 -70 -52 11 -49 33 10 92
46 47 158 108 216 119 16 3 31 7 33 10 7 7 136 0 156 -9z m6157 -40 c16 -8 30
-13 30 -10 0 8 78 -35 109 -60 73 -58 135 -144 118 -161 -11 -11 -92 -10 -143
2 -29 6 -78 24 -109 40 -103 50 -222 181 -185 204 21 13 146 3 180 -15z"/>
</g>
</svg>
